<svg xmlns="http://www.w3.org/2000/svg" width="17.003" height="16.995" viewBox="0 0 17.003 16.995">
  <g id="bag" transform="translate(0 -0.112)">
    <path id="Path_930" data-name="Path 930" d="M140.142,16.56,139.51,5.424a.518.518,0,0,0-.517-.489h-2.2V3.114a3,3,0,0,0-6,0V4.935H128.7a.518.518,0,0,0-.517.489l-.632,11.136a.518.518,0,0,0,.517.548h11.561A.519.519,0,0,0,140.142,16.56Zm-8.32-13.445a1.966,1.966,0,1,1,3.932,0V4.935h-3.932Z" transform="translate(-123.14)" fill="#549e34"/>
    <path id="Path_931" data-name="Path 931" d="M3.257,231.112H.518a.518.518,0,1,0,0,1.036H3.257a.518.518,0,1,0,0-1.036Z" transform="translate(0 -223.021)" fill="#549e34"/>
    <path id="Path_932" data-name="Path 932" d="M32.944,305.529H31.267a.518.518,0,0,0,0,1.036h1.677a.518.518,0,0,0,0-1.036Z" transform="translate(-29.687 -294.867)" fill="#549e34"/>
    <path id="Path_933" data-name="Path 933" d="M3.257,379.946H.518a.518.518,0,1,0,0,1.036H3.257a.518.518,0,1,0,0-1.036Z" transform="translate(0 -366.713)" fill="#549e34"/>
  </g>
</svg>
