<svg xmlns="http://www.w3.org/2000/svg" width="30.993" height="27.119" viewBox="0 0 30.993 27.119">
  <path id="basket_2_" data-name="basket (2)" d="M30.993,39.392H25.73L20.2,30.176a.969.969,0,0,0-1.661,1l4.931,8.218H7.522l4.931-8.218a.969.969,0,0,0-1.661-1L5.263,39.391H0v1.937H2.1L4.563,54.454a2.907,2.907,0,0,0,2.856,2.371H23.574a2.905,2.905,0,0,0,2.855-2.37l2.461-13.126h2.1s0-1.937,0-1.937ZM24.526,54.1a.967.967,0,0,1-.952.79H7.419a.969.969,0,0,1-.952-.791L4.072,41.329H26.921l-2.4,12.77Z" transform="translate(0 -29.706)"/>
</svg>
